<svg width="22" height="25" viewBox="0 0 22 25" fill="none" xmlns="http://www.w3.org/2000/svg">
<path d="M4.318 10.4906C5.88309 14.229 8.5843 17.3692 11.9886 19.4468L14.9007 16.798C15.2581 16.4729 15.7629 16.3885 16.1886 16.5695C17.5522 17.1304 19.0412 17.4806 20.5836 17.5767C21.2677 17.6193 21.7915 18.2309 21.7476 18.9357L21.4688 23.4083C21.4249 24.1131 20.8292 24.6549 20.1451 24.6123C8.46543 23.8844 -0.392374 13.5419 0.357628 1.50834C0.401557 0.803497 0.997229 0.261692 1.68134 0.30433L6.03479 0.575661C6.7189 0.618299 7.24269 1.22987 7.19876 1.93472C7.09891 3.53664 7.25184 5.08998 7.6226 6.55398C7.73147 7.01105 7.60081 7.50464 7.23017 7.84177L4.318 10.4906Z" fill="url(#paint0_linear_470_65)"/>
<defs>
<linearGradient id="paint0_linear_470_65" x1="11.6321" y1="0.924516" x2="10.1944" y2="23.9921" gradientUnits="userSpaceOnUse">
<stop stop-color="#77E7F8" stop-opacity="0.85"/>
<stop offset="1" stop-color="#37B4D7" stop-opacity="0.7"/>
</linearGradient>
</defs>
</svg>
