<svg width="59" height="53" viewBox="0 0 59 53" fill="none" xmlns="http://www.w3.org/2000/svg">
<path d="M8.04545 25.8258H0.515117L27.8301 0.850029L27.8302 0.849958C28.2467 0.468704 28.7796 0.2414 29.3412 0.205129C29.9007 0.168995 30.456 0.324583 30.9165 0.6466L31.1746 0.854282L58.4849 25.8258H50.9545H50.7545V26.0258V50.3026C50.7545 50.9146 50.5311 51.5051 50.127 51.9622C49.7242 52.4178 49.1698 52.7092 48.5686 52.7818L48.2667 52.8H10.7273C10.1198 52.7999 9.53319 52.5756 9.07888 52.1692C8.62593 51.7641 8.33584 51.2062 8.26353 50.6005L8.24545 50.2966V26.0258V25.8258H8.04545ZM29.635 6.19244L29.5 6.06903L29.365 6.19243L13.2741 20.9042L13.2091 20.9636V21.0518V47.6052V47.8052H13.4091H25.0938H25.1813L25.2407 47.7408L28.9765 43.6947L29.111 43.549L28.9664 43.4132L19.1021 34.1529L32.2852 26.197L32.53 26.0493L32.3072 25.87L25.7757 20.6144L33.223 13.1238L31.9845 20.5983L31.9654 20.7135L32.0564 20.7868L38.561 26.0207L28.0386 33.9584L27.8408 34.1077L28.0285 34.2695L37.2853 42.2501L34.0233 47.4996L33.8334 47.8052H34.1932H45.5909H45.7909V47.6052V21.0545V20.9663L45.7259 20.9069L29.635 6.19244Z" fill="#45D6F0" stroke="#32363C" stroke-width="0.4"/>
</svg>
