<svg width="51" height="65" viewBox="0 0 51 65" fill="none" xmlns="http://www.w3.org/2000/svg">
<mask id="path-1-inside-1_478_45" fill="white">
<path d="M9.0311 38.9415C10.8071 38.6813 12.6109 38.7043 14.3802 39.0097C18.4179 39.6915 22.2556 41.7303 26.3182 44.1944C33.6784 48.6584 41.763 47.7721 46.4158 44.3145C46.6661 44.1286 46.9492 43.9958 47.2489 43.9237C47.5486 43.8516 47.8591 43.8415 48.1625 43.8941C48.466 43.9468 48.7565 44.061 49.0175 44.2303C49.2785 44.3996 49.5048 44.6208 49.6836 44.8811C49.8624 45.1413 49.9902 45.4357 50.0595 45.7473C50.1289 46.0589 50.1386 46.3816 50.088 46.6971C50.0374 47.0126 49.9275 47.3147 49.7646 47.586C49.6018 47.8573 49.3891 48.0927 49.1387 48.2786C42.8622 52.9406 32.7759 53.749 23.9575 48.4019C19.9292 45.9573 16.7441 44.3437 13.6308 43.8178C10.6424 43.3113 7.52597 43.7853 3.61951 45.9995C3.34947 46.1525 3.05309 46.2488 2.74727 46.2828C2.44145 46.3167 2.13219 46.2878 1.83715 46.1975C1.54211 46.1072 1.26706 45.9573 1.02772 45.7565C0.788367 45.5557 0.589403 45.3079 0.442186 45.0271C0.294969 44.7464 0.202381 44.4383 0.169708 44.1203C0.137035 43.8024 0.164918 43.4808 0.251763 43.1741C0.338608 42.8673 0.482715 42.5814 0.675857 42.3325C0.868999 42.0837 1.10739 41.8768 1.37743 41.7238C4.06605 40.1979 6.58917 39.2986 9.0311 38.9415ZM13 29.0915C11.3797 28.9447 9.74771 29.0321 8.15051 29.3512C5.98025 29.7798 3.74441 30.6401 1.3743 31.9809C0.828531 32.2905 0.423384 32.8127 0.247993 33.4328C0.0726011 34.053 0.141331 34.7201 0.439064 35.2875C0.736796 35.8549 1.23914 36.2762 1.83559 36.4585C2.43204 36.6409 3.07373 36.5694 3.61951 36.2599C7.52285 34.0425 10.6393 33.5717 13.6277 34.0749C16.741 34.6009 19.9292 36.2177 23.9544 38.6591C32.7759 44.0094 42.8621 43.1977 49.1356 38.5389C49.6308 38.1598 49.9626 37.5933 50.0595 36.9619C50.1564 36.3305 50.0105 35.6849 49.6534 35.1643C49.2962 34.6438 48.7565 34.2903 48.1507 34.18C47.545 34.0697 46.9218 34.2115 46.4158 34.5749C45.1355 35.5229 43.6053 36.2761 41.8941 36.7826C40.2224 37.2686 38.4931 37.5068 36.7573 37.4903C33.0805 37.4466 29.4794 36.3987 26.3151 34.4515C22.2525 31.9874 18.4147 29.9518 14.3771 29.2701C13.9204 29.1926 13.461 29.1331 13 29.0915ZM42.3906 32.5004C42.3906 32.7276 42.3844 32.9549 42.3781 33.1821C40.9823 33.7665 39.3585 34.1431 37.5973 34.2243C37.9842 31.2242 37.3573 28.1775 35.8237 25.6045C34.2901 23.0316 31.9448 21.0919 29.1885 20.1169C26.4323 19.1419 23.4359 19.192 20.7112 20.2586C17.9864 21.3252 15.7024 23.3422 14.2491 25.9651C12.535 25.726 10.7988 25.7107 9.08106 25.9196C10.5573 22.0369 13.2896 18.8109 16.8075 16.7972C20.3253 14.7835 24.4084 14.1083 28.3536 14.8877C32.2988 15.6671 35.8591 17.8524 38.4213 21.0673C40.9834 24.2822 42.3872 28.3253 42.3906 32.5004ZM25.5188 64.9658C25.2584 65.0114 24.9924 65.0114 24.7319 64.9658H25.5188ZM6.32062 9.5798L6.05832 9.34605C5.58334 8.97901 4.99233 8.81254 4.40411 8.88009C3.81588 8.94764 3.27406 9.24421 2.88759 9.71017C2.50112 10.1761 2.29865 10.7769 2.32089 11.3918C2.34312 12.0066 2.58842 12.5899 3.00746 13.0244L6.3175 16.469L6.58293 16.706C7.05812 17.0786 7.65196 17.2492 8.24376 17.183C8.83556 17.1168 9.38092 16.8188 9.769 16.3496C10.1571 15.8804 10.3588 15.2752 10.3331 14.6569C10.3074 14.0387 10.0562 13.4538 9.63066 13.0211L6.32062 9.5798ZM47.4681 12.7517C47.8167 12.2575 47.9733 11.6448 47.9066 11.0359C47.8399 10.427 47.5548 9.86667 47.1082 9.46669C46.6616 9.06671 46.0864 8.85653 45.4973 8.87809C44.9082 8.89966 44.3485 9.15139 43.9301 9.58304L40.617 13.0211L40.389 13.2971C40.0357 13.7912 39.8756 14.4061 39.9409 15.0181C40.0062 15.63 40.292 16.1935 40.7409 16.5951C41.1897 16.9968 41.7682 17.2067 42.36 17.1827C42.9517 17.1587 43.5127 16.9025 43.9301 16.4657L47.2401 13.0244L47.4681 12.7517ZM27.458 2.10302C27.3771 1.49185 27.0761 0.935397 26.6158 0.546081C26.1555 0.156765 25.5702 -0.0363827 24.9782 0.00566645C24.3862 0.0477156 23.8316 0.321826 23.4265 0.772611C23.0214 1.2234 22.796 1.81724 22.7958 2.43416V7.30397L22.8177 7.63512C22.8986 8.24628 23.1996 8.80274 23.6599 9.19205C24.1202 9.58137 24.7055 9.77452 25.2975 9.73247C25.8895 9.69042 26.4441 9.41631 26.8492 8.96552C27.2543 8.51474 27.4797 7.92089 27.4799 7.30397V2.43416L27.458 2.10302ZM3.62263 55.7391C7.5291 53.525 10.6455 53.051 13.6339 53.5574C16.7441 54.0834 19.9355 55.7001 23.9606 58.1415C32.7822 63.4886 42.8684 62.6802 49.1418 58.0182C49.3999 57.8357 49.6203 57.6013 49.7901 57.329C49.9598 57.0567 50.0755 56.7518 50.1303 56.4323C50.1851 56.1128 50.1779 55.7852 50.1092 55.4686C50.0404 55.1521 49.9115 54.853 49.73 54.589C49.5485 54.325 49.3181 54.1013 49.0522 53.9312C48.7864 53.7611 48.4906 53.648 48.1821 53.5985C47.8736 53.549 47.5587 53.564 47.2559 53.6428C46.9531 53.7217 46.6685 53.8626 46.4189 54.0574C41.7661 57.5117 33.6815 58.398 26.3213 53.934C22.2587 51.4666 18.421 49.4311 14.3834 48.7493C10.2208 48.048 6.06144 48.811 1.38055 51.4667C0.857671 51.7878 0.475222 52.3075 0.313892 52.9162C0.152561 53.5249 0.224965 54.175 0.515829 54.7293C0.806693 55.2835 1.29327 55.6987 1.8729 55.8871C2.45254 56.0755 3.0799 56.0224 3.62263 55.7391Z"/>
</mask>
<path d="M9.0311 38.9415C10.8071 38.6813 12.6109 38.7043 14.3802 39.0097C18.4179 39.6915 22.2556 41.7303 26.3182 44.1944C33.6784 48.6584 41.763 47.7721 46.4158 44.3145C46.6661 44.1286 46.9492 43.9958 47.2489 43.9237C47.5486 43.8516 47.8591 43.8415 48.1625 43.8941C48.466 43.9468 48.7565 44.061 49.0175 44.2303C49.2785 44.3996 49.5048 44.6208 49.6836 44.8811C49.8624 45.1413 49.9902 45.4357 50.0595 45.7473C50.1289 46.0589 50.1386 46.3816 50.088 46.6971C50.0374 47.0126 49.9275 47.3147 49.7646 47.586C49.6018 47.8573 49.3891 48.0927 49.1387 48.2786C42.8622 52.9406 32.7759 53.749 23.9575 48.4019C19.9292 45.9573 16.7441 44.3437 13.6308 43.8178C10.6424 43.3113 7.52597 43.7853 3.61951 45.9995C3.34947 46.1525 3.05309 46.2488 2.74727 46.2828C2.44145 46.3167 2.13219 46.2878 1.83715 46.1975C1.54211 46.1072 1.26706 45.9573 1.02772 45.7565C0.788367 45.5557 0.589403 45.3079 0.442186 45.0271C0.294969 44.7464 0.202381 44.4383 0.169708 44.1203C0.137035 43.8024 0.164918 43.4808 0.251763 43.1741C0.338608 42.8673 0.482715 42.5814 0.675857 42.3325C0.868999 42.0837 1.10739 41.8768 1.37743 41.7238C4.06605 40.1979 6.58917 39.2986 9.0311 38.9415ZM13 29.0915C11.3797 28.9447 9.74771 29.0321 8.15051 29.3512C5.98025 29.7798 3.74441 30.6401 1.3743 31.9809C0.828531 32.2905 0.423384 32.8127 0.247993 33.4328C0.0726011 34.053 0.141331 34.7201 0.439064 35.2875C0.736796 35.8549 1.23914 36.2762 1.83559 36.4585C2.43204 36.6409 3.07373 36.5694 3.61951 36.2599C7.52285 34.0425 10.6393 33.5717 13.6277 34.0749C16.741 34.6009 19.9292 36.2177 23.9544 38.6591C32.7759 44.0094 42.8621 43.1977 49.1356 38.5389C49.6308 38.1598 49.9626 37.5933 50.0595 36.9619C50.1564 36.3305 50.0105 35.6849 49.6534 35.1643C49.2962 34.6438 48.7565 34.2903 48.1507 34.18C47.545 34.0697 46.9218 34.2115 46.4158 34.5749C45.1355 35.5229 43.6053 36.2761 41.8941 36.7826C40.2224 37.2686 38.4931 37.5068 36.7573 37.4903C33.0805 37.4466 29.4794 36.3987 26.3151 34.4515C22.2525 31.9874 18.4147 29.9518 14.3771 29.2701C13.9204 29.1926 13.461 29.1331 13 29.0915ZM42.3906 32.5004C42.3906 32.7276 42.3844 32.9549 42.3781 33.1821C40.9823 33.7665 39.3585 34.1431 37.5973 34.2243C37.9842 31.2242 37.3573 28.1775 35.8237 25.6045C34.2901 23.0316 31.9448 21.0919 29.1885 20.1169C26.4323 19.1419 23.4359 19.192 20.7112 20.2586C17.9864 21.3252 15.7024 23.3422 14.2491 25.9651C12.535 25.726 10.7988 25.7107 9.08106 25.9196C10.5573 22.0369 13.2896 18.8109 16.8075 16.7972C20.3253 14.7835 24.4084 14.1083 28.3536 14.8877C32.2988 15.6671 35.8591 17.8524 38.4213 21.0673C40.9834 24.2822 42.3872 28.3253 42.3906 32.5004ZM25.5188 64.9658C25.2584 65.0114 24.9924 65.0114 24.7319 64.9658H25.5188ZM6.32062 9.5798L6.05832 9.34605C5.58334 8.97901 4.99233 8.81254 4.40411 8.88009C3.81588 8.94764 3.27406 9.24421 2.88759 9.71017C2.50112 10.1761 2.29865 10.7769 2.32089 11.3918C2.34312 12.0066 2.58842 12.5899 3.00746 13.0244L6.3175 16.469L6.58293 16.706C7.05812 17.0786 7.65196 17.2492 8.24376 17.183C8.83556 17.1168 9.38092 16.8188 9.769 16.3496C10.1571 15.8804 10.3588 15.2752 10.3331 14.6569C10.3074 14.0387 10.0562 13.4538 9.63066 13.0211L6.32062 9.5798ZM47.4681 12.7517C47.8167 12.2575 47.9733 11.6448 47.9066 11.0359C47.8399 10.427 47.5548 9.86667 47.1082 9.46669C46.6616 9.06671 46.0864 8.85653 45.4973 8.87809C44.9082 8.89966 44.3485 9.15139 43.9301 9.58304L40.617 13.0211L40.389 13.2971C40.0357 13.7912 39.8756 14.4061 39.9409 15.0181C40.0062 15.63 40.292 16.1935 40.7409 16.5951C41.1897 16.9968 41.7682 17.2067 42.36 17.1827C42.9517 17.1587 43.5127 16.9025 43.9301 16.4657L47.2401 13.0244L47.4681 12.7517ZM27.458 2.10302C27.3771 1.49185 27.0761 0.935397 26.6158 0.546081C26.1555 0.156765 25.5702 -0.0363827 24.9782 0.00566645C24.3862 0.0477156 23.8316 0.321826 23.4265 0.772611C23.0214 1.2234 22.796 1.81724 22.7958 2.43416V7.30397L22.8177 7.63512C22.8986 8.24628 23.1996 8.80274 23.6599 9.19205C24.1202 9.58137 24.7055 9.77452 25.2975 9.73247C25.8895 9.69042 26.4441 9.41631 26.8492 8.96552C27.2543 8.51474 27.4797 7.92089 27.4799 7.30397V2.43416L27.458 2.10302ZM3.62263 55.7391C7.5291 53.525 10.6455 53.051 13.6339 53.5574C16.7441 54.0834 19.9355 55.7001 23.9606 58.1415C32.7822 63.4886 42.8684 62.6802 49.1418 58.0182C49.3999 57.8357 49.6203 57.6013 49.7901 57.329C49.9598 57.0567 50.0755 56.7518 50.1303 56.4323C50.1851 56.1128 50.1779 55.7852 50.1092 55.4686C50.0404 55.1521 49.9115 54.853 49.73 54.589C49.5485 54.325 49.3181 54.1013 49.0522 53.9312C48.7864 53.7611 48.4906 53.648 48.1821 53.5985C47.8736 53.549 47.5587 53.564 47.2559 53.6428C46.9531 53.7217 46.6685 53.8626 46.4189 54.0574C41.7661 57.5117 33.6815 58.398 26.3213 53.934C22.2587 51.4666 18.421 49.4311 14.3834 48.7493C10.2208 48.048 6.06144 48.811 1.38055 51.4667C0.857671 51.7878 0.475222 52.3075 0.313892 52.9162C0.152561 53.5249 0.224965 54.175 0.515829 54.7293C0.806693 55.2835 1.29327 55.6987 1.8729 55.8871C2.45254 56.0755 3.0799 56.0224 3.62263 55.7391Z" fill="#5CD8EB" stroke="#32363C" stroke-width="0.8" mask="url(#path-1-inside-1_478_45)"/>
</svg>
