<svg width="23" height="29" viewBox="0 0 23 29" fill="none" xmlns="http://www.w3.org/2000/svg">
<path d="M11.5 14.5C12.2906 14.5 12.9677 14.2158 13.5312 13.6474C14.0947 13.079 14.376 12.3965 14.375 11.6C14.375 10.8025 14.0932 10.1195 13.5297 9.55115C12.9662 8.98275 12.2897 8.69903 11.5 8.7C10.7094 8.7 10.0323 8.9842 9.46881 9.5526C8.90531 10.121 8.62404 10.8035 8.625 11.6C8.625 12.3975 8.90675 13.0805 9.47025 13.6489C10.0338 14.2173 10.7103 14.501 11.5 14.5ZM11.5 25.1575C14.4229 22.4508 16.5911 19.9916 18.0047 17.7799C19.4182 15.5682 20.125 13.6049 20.125 11.89C20.125 9.25583 19.2922 7.0992 17.6266 5.4201C15.961 3.741 13.9188 2.90097 11.5 2.9C9.08021 2.9 7.03752 3.74003 5.37194 5.4201C3.70635 7.10017 2.87404 9.2568 2.875 11.89C2.875 13.6058 3.58177 15.5696 4.99531 17.7813C6.40885 19.9931 8.57708 22.4518 11.5 25.1575ZM11.5 29C7.64271 25.6892 4.76196 22.6142 2.85775 19.7751C0.953542 16.936 0.000958333 14.3076 0 11.89C0 8.265 1.15623 5.37708 3.46869 3.22625C5.78115 1.07542 8.45825 0 11.5 0C14.5427 0 17.2203 1.07542 19.5327 3.22625C21.8452 5.37708 23.001 8.265 23 11.89C23 14.3067 22.0474 16.935 20.1422 19.7751C18.2371 22.6152 15.3563 25.6901 11.5 29Z" fill="url(#paint0_linear_470_69)"/>
<defs>
<linearGradient id="paint0_linear_470_69" x1="11.5" y1="0" x2="11.5" y2="29" gradientUnits="userSpaceOnUse">
<stop stop-color="#77E7F8" stop-opacity="0.85"/>
<stop offset="1" stop-color="#37B4D7" stop-opacity="0.7"/>
</linearGradient>
</defs>
</svg>
