<svg width="54" height="54" viewBox="0 0 54 54" fill="none" xmlns="http://www.w3.org/2000/svg">
<g filter="url(#filter0_d_437_218)">
<path d="M19.1716 3.82843C20.7337 2.26633 23.2663 2.26633 24.8284 3.82843L40.1716 19.1716C41.7337 20.7337 41.7337 23.2663 40.1716 24.8284L24.8284 40.1716C23.2663 41.7337 20.7337 41.7337 19.1716 40.1716L3.82843 24.8284C2.26633 23.2663 2.26633 20.7337 3.82843 19.1716L19.1716 3.82843Z" fill="url(#paint0_linear_437_218)" shape-rendering="crispEdges"/>
<path d="M19.5251 4.18198C20.892 2.81515 23.108 2.81515 24.4749 4.18198L39.818 19.5251C41.1849 20.892 41.1849 23.108 39.818 24.4749L24.4749 39.818C23.108 41.1849 20.892 41.1849 19.5251 39.818L4.18198 24.4749C2.81515 23.108 2.81515 20.892 4.18198 19.5251L19.5251 4.18198Z" stroke="#69CFE6" shape-rendering="crispEdges"/>
</g>
<defs>
<filter id="filter0_d_437_218" x="0.657227" y="0.65686" width="52.6855" height="52.6863" filterUnits="userSpaceOnUse" color-interpolation-filters="sRGB">
<feFlood flood-opacity="0" result="BackgroundImageFix"/>
<feColorMatrix in="SourceAlpha" type="matrix" values="0 0 0 0 0 0 0 0 0 0 0 0 0 0 0 0 0 0 127 0" result="hardAlpha"/>
<feOffset dx="5" dy="5"/>
<feGaussianBlur stdDeviation="3.5"/>
<feComposite in2="hardAlpha" operator="out"/>
<feColorMatrix type="matrix" values="0 0 0 0 0 0 0 0 0 0 0 0 0 0 0 0 0 0 0.25 0"/>
<feBlend mode="normal" in2="BackgroundImageFix" result="effect1_dropShadow_437_218"/>
<feBlend mode="normal" in="SourceGraphic" in2="effect1_dropShadow_437_218" result="shape"/>
</filter>
<linearGradient id="paint0_linear_437_218" x1="12.6667" y1="11.3333" x2="43" y2="51.3333" gradientUnits="userSpaceOnUse">
<stop stop-color="#58D2E3" stop-opacity="0.9"/>
<stop offset="1" stop-color="#58D2E3" stop-opacity="0"/>
</linearGradient>
</defs>
</svg>
