<svg width="31" height="22" viewBox="0 0 31 22" fill="none" xmlns="http://www.w3.org/2000/svg">
<path d="M30.2916 3.6184C31 5.95026 31 10.8181 31 10.8181C31 10.8181 31 15.686 30.2916 18.0178C29.8979 19.3068 28.7463 20.3209 27.2877 20.6638C24.6388 21.2866 15.5 21.2866 15.5 21.2866C15.5 21.2866 6.36585 21.2866 3.71225 20.6638C2.2475 20.3157 1.0974 19.3028 0.70835 18.0178C4.61936e-08 15.686 0 10.8181 0 10.8181C0 10.8181 4.61936e-08 5.95026 0.70835 3.6184C1.10205 2.32947 2.2537 1.31533 3.71225 0.972485C6.36585 0.349609 15.5 0.349609 15.5 0.349609C15.5 0.349609 24.6388 0.349609 27.2877 0.972485C28.7525 1.32056 29.9026 2.33339 30.2916 3.6184ZM12.4 15.3981L21.7 10.8181L12.4 6.23815V15.3981Z" fill="white"/>
</svg>
