<svg width="32" height="27" viewBox="0 0 32 27" fill="none" xmlns="http://www.w3.org/2000/svg">
<path d="M16 7.69242C14.6522 7.69242 13.3346 8.02714 12.2139 8.65426C11.0932 9.28139 10.2197 10.1727 9.70393 11.2156C9.18813 12.2585 9.05318 13.406 9.31613 14.5131C9.57908 15.6202 10.2281 16.6372 11.1812 17.4353C12.1343 18.2335 13.3486 18.7771 14.6705 18.9973C15.9924 19.2175 17.3627 19.1045 18.6079 18.6725C19.8532 18.2406 20.9175 17.509 21.6663 16.5705C22.4151 15.6319 22.8148 14.5285 22.8148 13.3997C22.8148 11.886 22.0968 10.4344 20.8188 9.36404C19.5408 8.29372 17.8074 7.69242 16 7.69242ZM16 16.1293C15.3554 16.1293 14.7252 15.9692 14.1893 15.6692C13.6533 15.3693 13.2355 14.943 12.9888 14.4443C12.7422 13.9455 12.6776 13.3967 12.8034 12.8672C12.9291 12.3377 13.2395 11.8513 13.6954 11.4696C14.1512 11.0879 14.7319 10.8279 15.3642 10.7226C15.9964 10.6173 16.6517 10.6713 17.2473 10.8779C17.8428 11.0845 18.3518 11.4344 18.71 11.8832C19.0681 12.3321 19.2593 12.8598 19.2593 13.3997C19.2554 14.1226 18.9107 14.815 18.3003 15.3262C17.69 15.8374 16.8632 16.126 16 16.1293ZM23.1111 0H8.88889C6.53141 0 4.27049 0.784305 2.6035 2.18038C0.936505 3.57645 0 5.46993 0 7.44427V19.3551C0 21.3295 0.936505 23.2229 2.6035 24.619C4.27049 26.0151 6.53141 26.7994 8.88889 26.7994H23.1111C25.4686 26.7994 27.7295 26.0151 29.3965 24.619C31.0635 23.2229 32 21.3295 32 19.3551V7.44427C32 5.46993 31.0635 3.57645 29.3965 2.18038C27.7295 0.784305 25.4686 0 23.1111 0ZM28.4444 19.3551C28.4444 20.5397 27.8825 21.6758 26.8823 22.5134C25.8822 23.3511 24.5256 23.8217 23.1111 23.8217H8.88889C7.4744 23.8217 6.11785 23.3511 5.11765 22.5134C4.11746 21.6758 3.55556 20.5397 3.55556 19.3551V7.44427C3.55556 6.25967 4.11746 5.12358 5.11765 4.28594C6.11785 3.44829 7.4744 2.97771 8.88889 2.97771H23.1111C24.5256 2.97771 25.8822 3.44829 26.8823 4.28594C27.8825 5.12358 28.4444 6.25967 28.4444 7.44427V19.3551ZM26.0741 6.94799C26.0741 7.34061 25.9351 7.72442 25.6746 8.05087C25.4141 8.37733 25.0439 8.63177 24.6108 8.78202C24.1777 8.93227 23.7011 8.97158 23.2413 8.89498C22.7815 8.81839 22.3591 8.62932 22.0276 8.35169C21.6961 8.07407 21.4703 7.72035 21.3789 7.33527C21.2874 6.95019 21.3344 6.55104 21.5138 6.18831C21.6932 5.82557 21.997 5.51553 22.3868 5.2974C22.7766 5.07927 23.2349 4.96285 23.7037 4.96285C24.3324 4.96285 24.9353 5.172 25.3798 5.54428C25.8243 5.91657 26.0741 6.4215 26.0741 6.94799Z" fill="white"/>
</svg>
