<svg width="62" height="56" viewBox="0 0 62 56" fill="none" xmlns="http://www.w3.org/2000/svg">
<path d="M57.4261 33.0672L58.9783 34.759L58.9261 34.7852L59.0056 34.882C59.6762 35.6988 60.2586 36.6024 60.6951 37.5631L60.6957 37.5645L60.9591 38.1208C63.0252 43.0443 61.5701 48.7285 57.7526 52.2863C54.2867 55.4628 49.4453 56.3132 44.9417 55.728L44.9411 55.7279C40.6867 55.2031 36.7779 52.5194 34.5313 48.8122C33.8595 47.6722 33.2774 46.3895 32.9867 45.0808L32.9876 45.0806L32.9829 45.0677C32.6066 44.054 32.4897 42.9505 32.4016 41.8635C32.1474 37.3357 33.8941 32.5377 37.208 29.5922C35.7806 33.1073 36.2214 37.3718 38.5361 40.3742L38.5361 40.3742L38.539 40.3777L38.862 40.7597L38.8672 40.7658L38.8732 40.771C39.3108 41.1463 39.8482 41.2428 40.3537 41.0532L40.3557 41.0524C40.8267 40.8639 41.2114 40.3908 41.2114 39.8724V39.8581L41.2074 39.8444L41.0018 39.1392L41.0021 39.1391L40.9994 39.1319C38.4303 32.3256 40.5914 24.4377 46.0494 19.9695L46.0496 19.9693C47.4854 18.7861 49.2429 17.715 51.0858 17.1957C49.1903 21.1992 49.8695 26.3557 53.0501 29.4525C53.7318 30.1935 54.4865 30.778 55.2389 31.3362C55.3407 31.4117 55.4423 31.4867 55.5438 31.5615C56.1939 32.041 56.8344 32.5133 57.4261 33.0672ZM52.507 48.561L52.5638 48.5177L52.5412 48.4499L52.5328 48.4246C53.8487 47.2502 54.5726 45.2783 54.5138 43.5125L54.514 43.5125L54.5134 43.5062L54.4253 42.5953L54.4258 42.5953L54.4238 42.5854C54.1244 41.0876 53.3226 40.0859 52.3983 39.1944C52.1155 38.9216 51.818 38.6562 51.5202 38.3905C51.3344 38.2248 51.1485 38.059 50.966 37.8912C50.4877 37.4515 50.0245 36.9914 49.6186 36.4619L49.6184 36.4616C49.1261 35.8242 48.6899 35.0103 48.3696 34.1943L48.2817 33.9706L48.185 34.1906C47.5291 35.6822 47.4709 37.084 47.7374 38.6841L47.7375 38.6849C47.8116 39.1071 47.9077 39.5139 48.0045 39.9116C48.0172 39.9635 48.0298 40.0152 48.0424 40.0668C48.1267 40.4115 48.2094 40.7497 48.2776 41.0894C48.434 41.8682 48.5125 42.6466 48.3549 43.4947C47.8922 45.3713 46.4205 47.2481 43.8487 47.8553L43.6722 47.897L43.8017 48.024C45.2837 49.4772 47.699 50.649 50.1265 49.8112C50.9065 49.6002 51.8854 49.0349 52.507 48.561ZM14.6826 29.2827H6.11437L20.6264 14.7621L20.797 14.5914H20.5557H11.9874L26.4287 0.141464L40.8701 14.5914H32.3018H32.0605L32.2311 14.7621L37.4815 20.0156C30.8462 23.6998 26.3287 31.1309 26.3287 39.6667C26.3287 44.5811 27.7612 49.1252 30.3458 52.7889H20.6557V44.0741V43.9741H20.5557H0.241319L14.7534 29.4534L14.924 29.2827H14.6826Z" fill="#45D6F0" stroke="#32363C" stroke-width="0.2"/>
</svg>
